<?xml version="1.0" standalone="no"?>
<!DOCTYPE svg PUBLIC "-//W3C//DTD SVG 1.1//EN" "http://www.w3.org/Graphics/SVG/1.1/DTD/svg11.dtd" >
<svg xmlns="http://www.w3.org/2000/svg">
<metadata>
Created by FontForge 20120731 at Fri Jun 23 16:41:22 2017
 By admin
</metadata>
<defs>
<font id="ALLEY" horiz-adv-x="1024" >
  <font-face 
    font-family="ALLEY"
    font-weight="500"
    font-stretch="normal"
    units-per-em="1024"
    panose-1="2 0 6 3 0 0 0 0 0 0"
    ascent="896"
    descent="-128"
    x-height="792"
    bbox="0 -212 2458 896"
    underline-thickness="0"
    underline-position="0"
    unicode-range="U+0078-EB5C"
  />
<missing-glyph 
 />
    <glyph glyph-name=".notdef" 
 />
    <glyph glyph-name=".notdef" 
 />
    <glyph glyph-name=".null" horiz-adv-x="0" 
 />
    <glyph glyph-name="nonmarkingreturn" horiz-adv-x="341" 
 />
    <glyph glyph-name="x" unicode="x" horiz-adv-x="1001" 
d="M281 543q-27 -1 -53 -1h-83q-18 0 -36.5 -6t-32.5 -18.5t-23 -32t-9 -45.5v-76h912v41q0 16 -0.5 30t-0.5 18q0 13 -5 29t-17 29.5t-31.5 22.5t-49.5 9h-133v-97h-438v97zM955 310v-52q0 -23 0.5 -52t0.5 -58t-10.5 -47.5t-26 -30t-33 -16t-31.5 -4.5q-14 -1 -29.5 -0.5
t-29.5 0.5h-32l-45 128h-439l-44 -128h-29h-34q-20 0 -45 1q-25 0 -41 9.5t-25.5 23t-13.5 29.5t-4 30v167h911zM163 247q-12 0 -21 -8.5t-9 -21.5t9 -21.5t21 -8.5q13 0 22 8.5t9 21.5t-9 21.5t-22 8.5zM316 123q-8 -26 -14 -48q-5 -19 -10.5 -37t-7.5 -25t-3 -15t1 -14.5
t9.5 -10.5t21.5 -4h37h67h81h80h64h36q23 0 34 12t2 38q-5 13 -9.5 30.5t-9.5 34.5q-5 19 -11 39h-368zM336 498v228q0 11 2.5 23t10 21.5t20.5 15.5t34 6h188q31 0 51.5 -14.5t20.5 -52.5v-227h-327z" />
    <glyph glyph-name="bofang1" unicode="&#xe602;" 
d="M512 812q-139 0 -257 -68.5t-186.5 -186.5t-68.5 -257t68.5 -257t186.5 -186.5t257 -68.5t257 68.5t186.5 186.5t68.5 257t-68.5 257t-186.5 186.5t-257 68.5zM512 -148q-122 0 -225 60t-163 163t-60 225t60 225t163 163t225 60t225 -60t163 -163t60 -225t-60 -225
t-163 -163t-225 -60zM384 556l384 -256l-384 -256v512z" />
    <glyph glyph-name="xiangyoum" unicode="&#xeb5b;" horiz-adv-x="1026" 
d="M0 812v-1024h1024v1024h-1024zM597 330l-225 237l50 59l275 -291l1 -1v0l-1 -1l-256 -312l-53 55z" />
    <glyph glyph-name="search" unicode="&#xe61d;" 
d="M965 3l-192 193q83 108 83 246q0 110 -54 203t-147.5 147.5t-203.5 54.5t-203 -54.5t-147.5 -147.5t-54.5 -203t54.5 -203.5t147.5 -147.5t203 -54q142 0 253 88l191 -191q15 -15 35.5 -15t35 14.5t14.5 35t-15 34.5v0zM235 225q-90 90 -90 217t89.5 216.5t216.5 89.5
t217 -89.5t90 -216.5t-90 -217t-217 -90t-216 90v0zM235 225z" />
    <glyph glyph-name="qianjin" unicode="&#xe763;" 
d="M303.5 830q12.5 0 21.5 -8l416 -417q9 -9 9 -21t-9 -21l-416 -417q-9 -8 -21.5 -8t-21 8.5t-8.5 21t9 20.5l395 396l-395 396q-9 8 -9 20.5t8.5 21t21 8.5z" />
    <glyph glyph-name="left" unicode="&#xe601;" horiz-adv-x="1026" 
d="M0 896v-1024h1024v1024h-1024v0zM636 160l-53 -55l-257 313l1 1l275 291l50 -59l-225 -237z" />
    <glyph glyph-name="xiangxiazhankai" unicode="&#xe619;" horiz-adv-x="2458" 
d="M1229 -128l-1229 1024h2458z" />
    <glyph glyph-name="xihuan" unicode="&#xe6ae;" 
d="M956 528q0 -185 -267 -421q-97 -86 -185 -143l-25.5 17t-63 47t-89.5 73t-95 91t-89.5 106t-63 113.5t-25.5 116.5q0 66 21.5 119t57.5 84.5t83 45t96.5 5t100.5 -41.5t92 -88q41 55 92 88t100.5 41.5t97 -5t83 -45t57.5 -84.5t22 -119v0z" />
    <glyph glyph-name="in-fenxiang" unicode="&#xe603;" 
d="M512 896q-139 0 -257 -68.5t-186.5 -186.5t-68.5 -257t68.5 -257t186.5 -186.5t257 -68.5t257 68.5t186.5 186.5t68.5 257t-68.5 257t-186.5 186.5t-257 68.5zM460 380v-4.5v-4.5l140 -97q23 16 51 16q37 0 63.5 -26.5t26.5 -63.5t-26.5 -63.5t-64 -26.5t-63.5 26.5
t-26 63.5v1v6v6l-136 95q-24 -20 -56 -20q-37 0 -63.5 26.5t-26.5 64t26.5 63.5t63.5 26q32 0 56 -20l136 95q-3 11 -3 22v0v1q0 38 27.5 65.5t66 27.5t66 -27.5t27.5 -66t-27.5 -66t-65.5 -27.5q-24 0 -45 11l-145 -102z" />
    <glyph glyph-name="fenxiang" unicode="&#xe604;" 
d="M512 880q-205 0 -350.5 -145.5t-145.5 -350.5t145.5 -350.5t350.5 -145.5t350.5 145.5t145.5 350.5t-145.5 350.5t-350.5 145.5zM512 -65q-91 0 -174.5 35.5t-143.5 95.5t-95.5 143.5t-35.5 174.5t35.5 174.5t95.5 143.5t143.5 95.5t174.5 35.5t174.5 -35.5t143.5 -95.5
t95.5 -143.5t35.5 -174.5t-35.5 -174.5t-95.5 -143.5t-143.5 -95.5t-174.5 -35.5zM646 469v0q38 0 64.5 26.5t26.5 64t-26.5 64t-64 26.5t-64 -26.5t-26.5 -64.5v0q0 -10 2 -21l-128 -90q-24 19 -55 19q-36 0 -61.5 -25.5t-25.5 -61.5t25.5 -61.5t61.5 -25.5q31 0 55 19
l129 -93q-1 -7 -1 -14v-1v0l-97 166v4v4v1l140 99q19 -9 40 -9h5v0z" />
    <glyph glyph-name="in-qq" unicode="&#xe605;" 
d="M512 880q-205 0 -350.5 -145.5t-145.5 -350.5t145.5 -350.5t350.5 -145.5t350.5 145.5t145.5 350.5t-145.5 350.5t-350.5 145.5zM673 171q-19 -24 -50 -24q-4 0 -9 1q-65 0 -92 26q-5 3 -10.5 3t-9.5 -3q-27 -26 -93 -26q-4 -1 -8 -1q-31 0 -50 24q-5 9 -5 18
q0 16 10.5 28t26.5 14q-33 42 -41 95q-6 -62 -26 -67q-4 -1 -7 3q-8 14 -8 31q0 3 1 6q10 68 61 113q-12 -4 -12 9q0 25 17 43v2v8q0 60 42 102.5t102 43.5q60 -1 102 -43.5t42 -102.5v-9v-1q17 -18 17 -44q0 -9 -3 -18q49 -48 54 -116l-1 8v-1v-1q0 -16 -8 -31
q-4 -4 -10.5 -2.5t-15 11t-15.5 24.5q-16 -52 -56 -87q33 13 46 7t13 -25q0 -9 -4 -18v0z" />
    <glyph glyph-name="qq" unicode="&#xe607;" 
d="M512 880q-205 0 -350.5 -145.5t-145.5 -350.5t145.5 -350.5t350.5 -145.5t350.5 145.5t145.5 350.5t-145.5 350.5t-350.5 145.5zM512 -65q-91 0 -174.5 35.5t-143.5 95.5t-95.5 143.5t-35.5 174.5t35.5 174.5t95.5 143.5t143.5 95.5t174.5 35.5t174.5 -35.5t143.5 -95.5
t95.5 -143.5t35.5 -174.5t-35.5 -174.5t-95.5 -143.5t-143.5 -95.5t-174.5 -35.5zM656 464v2v8q0 60 -42 102.5t-102 43.5q-60 -1 -102 -43.5t-42 -102.5v-9v-1q-17 -18 -17 -44q0 -9 3 -18q-49 -48 -54 -116l1 8v-1v-1q0 -16 8 -31q4 -4 10.5 -2.5t15 11t15.5 24.5
q16 -52 56 -87q-33 13 -46 7t-13 -25q0 -9 4 -18q19 -24 50 -24q4 0 9 1q65 0 92 26q5 3 10.5 3t9.5 -3q27 -26 93 -26q4 -1 8 -1q31 0 50 24q5 9 5 18q0 16 -10.5 28t-26.5 14q33 42 41 95q6 -62 26 -67q4 -1 7 3q8 14 8 31q0 3 -1 6q-10 68 -61 113q12 -4 12 8
q0 26 -17 44v0z" />
    <glyph glyph-name="in-youtube" unicode="&#xe60d;" 
d="M512 880q-205 0 -350.5 -145.5t-145.5 -350.5t145.5 -350.5t350.5 -145.5t350.5 145.5t145.5 350.5t-145.5 350.5t-350.5 145.5zM283 126q-18 14 -21 36q-8 39 -8 88v17v14q0 49 10 97q6 19 24 31q12 10 35 11q60 6 189 6t193 -6q22 -2 39 -17q14 -11 18 -34q8 -38 8 -87
v-17v-14q0 -49 -10 -97q-6 -19 -24 -31q-11 -10 -34 -11q-61 -7 -190 -7t-193 7q-22 2 -38 16zM505 611h3q20 0 34 -16q10 -14 10 -31q0 -3 -1 -5v-54q1 -3 1 -5q0 -18 -10 -32q-15 -16 -37 -16t-37 16q-10 14 -10 32q0 3 1 5v54q-1 3 -1 6q0 17 10 32q14 15 34 15q1 0 3 -1
v0zM360 604q-13 32 -23 58h36l24 -81l24 81h35l-42 -124v-83h-33v83q-19 80 -61 146zM609 484v0q0 -6 7 -6v0q14 2 21 14l-1 117h32v-154h-32v16q-14 -18 -38 -19v0q-13 0 -18 11q-3 10 -3 21v3v123h32v-115v-2v-9v0zM553 181q13 -16 34 -17v0q17 0 22 17q4 12 4 25
q0 4 -1 7v60q1 3 1 6q0 13 -4 26q-5 17 -22 17h-1q-21 -1 -33 -18v68h-31v-206h31v15zM553 290q7 6 16 7q13 0 13 -21v-66q0 -21 -13 -21q-10 1 -16 8v93zM465 202q-8 -11 -21 -13v0v0q-6 0 -6 7q-1 3 -1 5.5t1 5.5v113h-32v-122v-4q0 -10 3 -20q5 -11 17 -11h3q23 2 37 20
l-2 -18h31v155h-30v-118zM293 343h36v-177h35v177h37v29h-108v-29zM505 478q15 0 15 22v65q0 21 -15 21t-15 -21v-66q0 -21 15 -21zM686 164h3q21 0 34 17q7 8 8 19v6q0 5 -1 10v3h-30v-10v-10q-2 -10 -13 -10h-1q-16 0 -16 21v28h62v32v4q0 18 -10 32q-15 16 -37 16
t-37 -16q-10 -14 -10 -32q0 -2 1 -5v-53q-1 -2 -1 -5q0 -17 11 -31q14 -16 35 -16h2v0zM669 276q0 21 15.5 21t15.5 -21v-15h-31v15z" />
    <glyph glyph-name="Twitter" unicode="&#xe60e;" 
d="M786 611q-47 -29 -104 -32q5 19 -12.5 30t-45.5 11q-49 0 -84 -34.5t-35 -83.5q0 -14 3 -29q-76 5 -141 39.5t-109 91.5q-13 -44 -13 -65q0 -31 14.5 -57t39.5 -43q-31 1 -58 18l4 -4v-2q0 -42 26.5 -74.5t67.5 -41.5q-14 -4 -31 -4v0q-12 0 -25 2q13 -36 44 -59t69 -23
q-65 -51 -148 -51v0h-2q-14 0 -28 1q85 -55 186 -55q92 0 170.5 45.5t123.5 123.5t45 170v2v16q62 45 89 115q-38 -45 -63 -59t-54 -15q63 25 74 79zM512 880q-205 0 -350.5 -145.5t-145.5 -350.5t145.5 -350.5t350.5 -145.5t350.5 145.5t145.5 350.5t-145.5 350.5
t-350.5 145.5zM512 -65q-91 0 -174.5 35.5t-143.5 95.5t-95.5 143.5t-35.5 174.5t35.5 174.5t95.5 143.5t143.5 95.5t174.5 35.5t174.5 -35.5t143.5 -95.5t95.5 -143.5t35.5 -174.5t-35.5 -174.5t-95.5 -143.5t-143.5 -95.5t-174.5 -35.5z" />
    <glyph glyph-name="in-weixin" unicode="&#xe60f;" 
d="M512 880q-205 0 -350.5 -145.5t-145.5 -350.5t145.5 -350.5t350.5 -145.5t350.5 145.5t145.5 350.5t-145.5 350.5t-350.5 145.5zM730 199l16 -51l-57 31q-33 -11 -71 -11q-67 0 -116 44t-49 105q0 62 51 105.5t123 43.5q70 0 122.5 -44t52.5 -105q0 -65 -72 -118z
M447 272h-20q-44 2 -85 14l-56 -40l20 62q-84 54 -84 138q0 73 60 123.5t145 50.5q76 0 135 -41t72 -103q-9 1 -20 1h-5q-68 0 -117 -47t-51 -115v-3q0 -21 6 -41v1zM361 533h-3q-11 0 -19 -7.5t-9 -18.5q1 -11 9 -18.5t19 -7.5q2 0 3 1q10 1 16.5 8t6.5 17t-6.5 17.5
t-16.5 8.5v0zM530 507v2q0 10 -7 17t-17 7h-2h-2q-11 0 -19 -7.5t-9 -18.5q1 -11 9 -18.5t19 -7.5h2h2q10 0 17 7t7 17v2v0zM571 384q-8 0 -14 -6t-6 -14.5t6 -14.5t14 -6h2q9 0 16 6t8 14q-1 9 -8 15t-16 6h-2v0zM684 384q-9 0 -15 -6t-6 -14.5t6 -14.5t15 -6h2q9 0 16 6
t8 14q-1 9 -8 15t-16 6h-2v0z" />
    <glyph glyph-name="in-Twitter" unicode="&#xe610;" 
d="M512 880q-205 0 -350.5 -145.5t-145.5 -350.5t145.5 -350.5t350.5 -145.5t350.5 145.5t145.5 350.5t-145.5 350.5t-350.5 145.5zM743 502v-15q0 -92 -45.5 -170t-123.5 -123.5t-170 -45.5q-100 0 -184 54q12 -2 28 -2h2h1q83 0 148 51q-39 1 -69.5 23.5t-42.5 58.5
q13 -1 23 -1v0q19 1 35 6q-44 8 -71.5 40t-27.5 74v3q26 -15 57 -15q-56 34 -56 99q0 33 16 61q46 -57 111.5 -90.5t140.5 -36.5q-10 10 -10 29v0q0 49 35 84t84 35q51 0 87 -37q56 11 100 45q-28 -38 -47 -58t-40 -30q62 14 98 33q-71 -76 -131 -102z" />
    <glyph glyph-name="in-weibo" unicode="&#xe611;" 
d="M512 880q-205 0 -350.5 -145.5t-145.5 -350.5t145.5 -350.5t350.5 -145.5t350.5 145.5t145.5 350.5t-145.5 350.5t-350.5 145.5zM748 515q-17 26 -44 41l3 -1q-7 6 -29 11q5 0 -1 2q-14 5 -35 7h1l2 -1h1h1h1h1l12 -3h-3q-5 1 -8 1h2h-1q-5 0 -9 -1q-1 1 -4 1q-2 0 -5 -1
l-5 -2l-6 -1h-10v0q-9 0 -16 7t-7 16q0 8 5 14q5 8 14 9l-2 1h1q22 6 47 6q17 0 34 -3q30 -8 55 -24l24 -20l7 -7v1q12 -13 22 -31l-8 11q0 -1 2 -6q5 -12 7 -19v2q4 -8 6 -32v0v-12v-10q-2 -30 -12 -58q0 -15 -19 -15h-1q-6 0 -11 2q-6 2 -10 7q-2 2 -2 8v0v3.5v3.5
q2 8 5 14l-2 -3v1.5v1.5v1v1q6 16 6 34q0 23 -9 43v0zM441 148q-46 3 -89 14q-6 1 -28.5 10.5t-43.5 21.5q-20 14 -39 36l-10 19q-11 28 -13 55v9q2 26 13 48q19 49 63 86l-25 -22q8 10 23.5 26t30.5 33q50 47 116 66q-12 -4 -22 -7h-1q22 6 40 8q-6 -1 -16 -2q10 1 21 1h-1
h-6v0h2q9 0 18 -3q13 -4 22 -15q3 -5 5 -13q3 -5 4 -20l-1 5v-2v-1v-8l-2 -9q0 -2 -1 -5l-1 -3v-7v-4l4 -2q2 -1 3.5 -1t3.5 1q11 2 22 7l-3 -1q9 4 23 7q26 7 56 8l-15 -1h4q8 0 16 -1q15 -3 25 -15q6 -5 9 -17l2 -11v2v-2q0 -3 -1 -6q-1 -9 -3 -17l-0.5 -1t-2 -3.5
t-3.5 -4.5l2 1l-2 -2l-2 -3q-1 -2 -1 -4t1 -4q6 -5 14 -6q15 -3 27 -11q13 -5 28 -26v0q7 -8 11 -25q-1 5 -1 1q1 -9 1 -14v-4q-1 -25 -13 -47q-27 -54 -86 -77q-14 -12 -47.5 -22.5t-71.5 -13.5h6q-10 -3 -43 -3q-12 0 -23 1h1zM686 465q-4 46 -57 34v0q-6 0 -11 4.5
t-5 11.5v0v0q0 4 3 8q3 6 9 8v0h4v0q8 2 17 2t18 -2q61 -10 53 -87v-1.5v-0.5q-1 -5 -4 -8q-2 -3 -7 -5l-5 -1q-6 0 -11 5t-5 11q2 6 2 12q0 5 -1 10v-1zM460 311h-2q-5 0 -9 -4l-2 -2q-2 -1 -2 -3l-1 -2q-1 -1 -1 -1.5t1 -1.5v-3q-1 0 -1 -1t1 -1l1 -3q2 -4 7 -4v0h1
q5 0 9 3q5 5 7 11l-1 -1v3v0q0 3 -1 5q-3 5 -8 5h1zM623 309q-1 25 -14.5 45t-36.5 30q-48 24 -103 24h-21q-69 -2 -126 -40q-21 -12 -34 -34t-14 -48q1 -25 15 -46.5t36 -32.5q48 -29 106 -29q9 0 18 1q69 2 125 44q21 13 34.5 36.5t14.5 50.5v-1zM526 275q-3 -19 -16 -33
q-23 -30 -66 -36l-15 -1q-32 0 -61 16q-16 9 -22 28l-2 12v-2l-1 5v5v13q2 15 6 29q0 4 13 20q4 12 29 27q-5 -4 2 -1q9 3 15 4l21 5h7l8 1q17 0 34 -6q23 -8 36 -29q10 -11 12 -36l1 -1v-9q0 -6 -1 -12v1zM431 286q-6 6 -15 8q2 0 1 0q-3 0 -5 1h-3q-3 0 -6 -1
q-10 0 -17 -6q-9 -7 -13 -18q-1 -4 -1 -8v-3v-3q1 -5 5 -9l1 -1q3 -4 8 -5l3 -2q4 -1 9 -1h2h4q10 1 17 7q10 5 14 17l1 7q0 5 -1 9q-1 5 -5 9z" />
    <glyph glyph-name="weixin" unicode="&#xe612;" 
d="M615 477q10 0 21 -1q-14 62 -73.5 103t-135.5 41q-85 0 -145 -50.5t-60 -123.5q0 -82 82 -139l-20 -62l71 36q39 -10 83 -10h7q-4 16 -4 34v10q2 68 51 115t117 47h6v0zM504 533h3q10 0 17.5 -7.5t7.5 -18t-7.5 -18.5t-17.5 -8q-2 0 -3 1q-1 -1 -2 -1q-11 0 -19 7.5
t-9 18.5q1 11 9 18.5t19 7.5h2v0zM361 482q-1 -1 -3 -1q-11 0 -19 7.5t-9 18.5q1 11 9 18.5t19 7.5h3q10 -1 16.5 -8.5t6.5 -17.5t-6.5 -17t-16.5 -8v0zM628 466q-73 0 -124 -43.5t-51 -105.5t51 -105.5t124 -43.5q37 2 72 14l46 -34l-16 51q71 53 71 118q1 61 -51 105
t-122 44zM571 343v0q-8 0 -14.5 6t-6.5 14.5t6.5 14.5t14.5 6v0h2q9 0 16 -6t8 -14q-1 -9 -8 -15t-16 -6h-2v0zM684 343q-9 0 -15 6t-6 14.5t6 14.5t15 6h2q9 0 16 -6t8 -14q-1 -9 -8 -15t-16 -6h-2v0zM512 880q-205 0 -350.5 -145.5t-145.5 -350.5t145.5 -350.5
t350.5 -145.5t350.5 145.5t145.5 350.5t-145.5 350.5t-350.5 145.5zM512 -65q-91 0 -174.5 35.5t-143.5 95.5t-95.5 143.5t-35.5 174.5t35.5 174.5t95.5 143.5t143.5 95.5t174.5 35.5t174.5 -35.5t143.5 -95.5t95.5 -143.5t35.5 -174.5t-35.5 -174.5t-95.5 -143.5
t-143.5 -95.5t-174.5 -35.5z" />
    <glyph glyph-name="weibo" unicode="&#xe613;" 
d="M790 547q-16 27 -43 43q2 0 -4 4t-18 9.5t-24 8.5l9 -1q-12 5 -34 8q-6 1 1 0q-10 1 -19 2l11 -2h-5h-8q-24 0 -47 -6v1v-2q-9 -2 -14 -10q-3 -4 -3 -12q0 -10 7 -17q6 -7 15 -7h1h10l6 2l5 2h4.5h4.5h8h9q16 -2 30 -9q22 -7 48 -29l-7 5q1 -1 3 -4q8 -10 12 -16
q7 -13 12 -30l-2 -1q1 -12 1 -19q0 -15 -4 -30v0v-1v-1v-2l-1 -5q0 -2 -2 -6v-3v-3v-1q0 -5 4 -10t10 -6q3 -1 9 -1h1q19 0 22 24q9 27 9 58v1q0 17 -4 34q-8 29 -28 52zM510 340q-16 19 -41 24q-3 3 -24 3q-9 0 -16 -1q-22 -2 -42 -12q-14 -6 -27 -25q-1 0 -3.5 -4.5
t-6 -12.5t-5.5 -15q1 2 2 5v1q-1 -8 -2 -13l-1 -18v-11q1 -6 3 -11q1 -7 7 -16q4 -9 23 -16q19 -12 53 -12q12 0 23 2q42 9 66 46q7 6 8 26l1 9q0 11 -3 21q-6 23 -25 40zM433 256q-7 -11 -19 -15l-11 -2h-2h-4q-5 0 -9 2l-4 1q-4 2 -6 6l-2 3q-3 4 -4 9l1 -1v0v4q0 8 4 14
q7 11 18 16l10 2h5h6q7 -1 12 -5q5 -3 10 -11l-1 1q0 -3 1 -4v-6q0 -8 -6 -15zM466 293q-3 -6 -9 -9q-1 1 -4 0h-1v0q-5 0 -7 5l-1 2q-1 1 -1 1.5t1 1.5v3q-1 0 -1 1t1 2l1 3q1 1 3 2l1 2q4 4 9 4h2q5 -1 7 -6q1 -2 1 -5v-1q0 -4 -2 -7v1zM689 433q5 -5 11 -5v0q5 0 8 2
q5 3 7 8l1 5v-1v2q8 76 -54 87q-8 1 -17 1t-17 -1v0q-4 0 -8 -2q-5 -4 -7 -11v-1q-1 -1 -1 -2v0v-1q0 -6 5 -10.5t11 -4.5v0q53 12 57 -34v-7q0 -8 -2 -15q1 -6 7 -11zM694 368q-18 17 -43 22q5 -1 0 0h-7q3 0 0 2l-4 4v0v3q0 2 1 3l2 4l1 2l3 6q4 7 4 16l1 9v0v6
q-2 10 -8 19q0 4 -12 11q0 1 -3 2.5t-7.5 3t-9.5 1.5q-2 1 -12 1q-8 0 -15 -1q-32 -5 -61 -18q19 8 10 5l-8 -4q-11 -4 -23 -4h9v0h-1q-2 0 -3 1l-4 2q-1 2 0 5q1 1 0 4v2q0 5 2 9l2 9v7v8q-2 13 -8 24l-10 9q-6 5 -21 7l-12 2q-4 0 -9 -1q-24 -2 -47 -13q-35 -11 -70 -48
q-2 2 -11.5 -6.5t-23 -26t-23.5 -35.5q32 47 17.5 31t-23.5 -27l-7 -10q-34 -45 -42 -101l2 15q-2 -3 -2 -21v-8q8 -66 63 -104q37 -27 90 -35q-7 0 3 -3q22 -6 57 -7l-6 -1q9 -2 48 -3q-7 1 -13 1h-2h9q41 0 80 9q74 17 132 66q0 -3 7 5.5t16.5 26t15.5 34.5q2 12 3 25v1
q0 16 -8 31q-12 22 -35 34zM571 222q-55 -42 -126 -42q-3 -1 -13 -1q-58 0 -108 30q-22 11 -35.5 32.5t-13.5 47.5q1 26 14.5 48t36.5 34q56 36 124 37h19q55 0 105 -25q21 -9 35 -29.5t14 -45.5q-3 -57 -53 -87zM512 880q-205 0 -350.5 -145.5t-145.5 -350.5t145.5 -350.5
t350.5 -145.5t350.5 145.5t145.5 350.5t-145.5 350.5t-350.5 145.5zM512 -65q-91 0 -174.5 35.5t-143.5 95.5t-95.5 143.5t-35.5 174.5t35.5 174.5t95.5 143.5t143.5 95.5t174.5 35.5t174.5 -35.5t143.5 -95.5t95.5 -143.5t35.5 -174.5t-35.5 -174.5t-95.5 -143.5
t-143.5 -95.5t-174.5 -35.5z" />
    <glyph glyph-name="youtube" unicode="&#xe614;" 
d="M512 880q-205 0 -350.5 -145.5t-145.5 -350.5t145.5 -350.5t350.5 -145.5t350.5 145.5t145.5 350.5t-145.5 350.5t-350.5 145.5zM512 -65q-91 0 -174.5 35.5t-143.5 95.5t-95.5 143.5t-35.5 174.5t35.5 174.5t95.5 143.5t143.5 95.5t174.5 35.5t174.5 -35.5t143.5 -95.5
t95.5 -143.5t35.5 -174.5t-35.5 -174.5t-95.5 -143.5t-143.5 -95.5t-174.5 -35.5zM505 452h2q21 0 34 16q10 14 10 32v5v54q1 3 1 6q0 17 -11 32q-14 15 -36 15t-37 -15q-10 -15 -10 -32v-5v-54v-5q0 -17 10 -32q14 -17 35 -17h2v0zM490 565q0 21 15 21t15 -21v-66
q0 -21 -15 -21t-15 21v66zM381 538v-83h35v83l42 125h-35l-24 -82l-24 82h-38q10 -27 24 -58q27 -69 32 -148zM600 452q24 2 37 21l-1 -18h32v155h-32v-119q-7 -12 -21 -13h1v0q-7 0 -7 7v0v5v6v114h-32v-123v-4q0 -10 3 -20q5 -11 18 -11h2v0zM569 297q-9 -1 -16 -8l1 -94
q6 -6 16 -7q13 0 13 21v67q0 21 -14 21zM741 405q-17 14 -40 15q-60 7 -189 6.5t-193 -6.5q-22 -2 -38 -17q-16 -12 -19 -34q-8 -39 -8 -88v-16v-15q0 -49 10 -96q5 -19 24 -31q12 -10 34 -11q61 -7 190 -7t193 7q22 2 38 16q15 13 19 35q8 39 8 89v15v15q0 48 -10 96
q-5 19 -24 31zM401 343h-37v-177h-35v177h-36v29h108v-29zM496 166h-31v17q-15 -18 -38 -19v0q-13 0 -18 12q-3 9 -3 20v3v121h31v-113v-6v-5q1 -7 7 -7h1q13 2 20 14v117h30zM614 213v-5q0 -14 -3 -26q-5 -17 -23 -17h-1q-20 2 -33 18l1 -16h-33v205h31v-67q13 16 33 17v0
q18 0 23 -18q4 -12 4 -25q0 -3 -1 -6zM732 239h-63v-27q0 -22 16 -22h1q11 0 13 11v10v10l31 -1v-4q1 -4 1 -8.5t-1 -9.5q-1 -11 -9 -19q-11 -14 -32 -14h-4h-2q-21 0 -35 16q-10 14 -10 32v4v53v4q0 18 10 32q15 16 37 16t37 -16q9 -14 9 -32v-5zM684 297q-15 0 -15 -22
v-14h32v14q0 22 -17 22z" />
    <glyph glyph-name="you" unicode="&#xe615;" 
d="M512 880q-205 0 -350.5 -145.5t-145.5 -350.5t145.5 -350.5t350.5 -145.5t350.5 145.5t145.5 350.5t-145.5 350.5t-350.5 145.5zM512 -50q-180 0 -307 127t-127 307t127 307t307 127t307 -127t127 -307t-127 -307t-307 -127zM401 671q-9 9 -22 9t-22 -9t-9 -22t9 -22
l244 -243l-244 -243q-11 -9 -11 -24q0 -12 9 -21.5t22 -9.5q14 0 24 11l266 265q9 9 9 22t-9 22z" />
    <glyph glyph-name="zuo" unicode="&#xe616;" 
d="M512 880q-205 0 -350.5 -145.5t-145.5 -350.5t145.5 -350.5t350.5 -145.5t350.5 145.5t145.5 350.5t-145.5 350.5t-350.5 145.5zM512 -50q-180 0 -307 127t-127 307t127 307t307 127t307 -127t127 -307t-127 -307t-307 -127zM623 97q9 -9 22 -9t22 9t9 22t-9 22l-244 243
l244 243q11 9 11 24q0 12 -9 21.5t-22 9.5q-14 0 -24 -11l-266 -265q-9 -9 -9 -22t9 -22z" />
    <glyph glyph-name="xia" unicode="&#xe617;" 
d="M512 880q-205 0 -350.5 -145.5t-145.5 -350.5t145.5 -350.5t350.5 -145.5t350.5 145.5t145.5 350.5t-145.5 350.5t-350.5 145.5zM512 -50q-180 0 -307 127t-127 307t127 307t307 127t307 -127t127 -307t-127 -307t-307 -127zM799 495q9 9 9 22t-9 22t-22 9t-22 -9
l-243 -244l-243 244q-9 11 -24 11q-12 0 -21.5 -9t-9.5 -22q0 -14 11 -24l265 -266q9 -9 22 -9t22 9z" />
    <glyph glyph-name="shang" unicode="&#xe618;" 
d="M512 880q-205 0 -350.5 -145.5t-145.5 -350.5t145.5 -350.5t350.5 -145.5t350.5 145.5t145.5 350.5t-145.5 350.5t-350.5 145.5zM512 -50q-180 0 -307 127t-127 307t127 307t307 127t307 -127t127 -307t-127 -307t-307 -127zM225 273q-9 -9 -9 -22t9 -22t22 -9t22 9
l243 244l243 -244q9 -11 24 -11q12 0 21.5 9t9.5 22q0 14 -11 24l-265 266q-9 9 -22 9t-22 -9z" />
    <glyph glyph-name="weixuanze" unicode="&#xe61a;" 
d="M922 794v-820h-820v820h820zM1024 896h-1024v-1024h1024v1024z" />
    <glyph glyph-name="xuanzhong" unicode="&#xe61c;" 
d="M0 896v-1024h1024v1024h-1024zM512 203l-72 -72l-73 72l-217 217l72 73l217 -218l362 362l72 -72z" />
    <glyph glyph-name="quxiaoxuanze" unicode="&#xe61e;" 
d="M0 896v-1024h1024v1024h-1024zM802 167l-72 -72l-218 217l-217 -218l-73 73l218 217l-218 217l73 73l217 -218l217 217l72 -72l-217 -217z" />
    <glyph glyph-name="yiruxuanze" unicode="&#xe61f;" 
d="M0 896v-1024h1024v1024h-1024zM922 -26h-820v820h820v-820zM440 131l434 434l-72 72l-362 -362l-218 218l-72 -73l217 -217z" />
    <glyph glyph-name="lianxiwomen" unicode="&#xe621;" 
d="M708 604h-392v0q-13 0 -22.5 -9.5t-9.5 -22.5v0v-278q0 -13 9.5 -22.5t22.5 -9.5h82v-97l179 97h131q13 0 22.5 9.5t9.5 22.5v277v1q0 13 -9.5 22.5t-22.5 9.5v0zM398 408q-13 0 -22.5 9.5t-9.5 23t9.5 22.5t22.5 9t22.5 -9t9.5 -22.5t-9.5 -23t-22.5 -9.5v0zM512 408v0
q-13 0 -22.5 9.5t-9.5 23t9.5 22.5t22.5 9t22.5 -9t9.5 -22.5t-9.5 -23t-22.5 -9.5v0zM626 408v0q-13 0 -22.5 9.5t-9.5 23t9.5 22.5t22.5 9t22.5 -9t9.5 -22.5t-9.5 -23t-22.5 -9.5zM512 880q-205 0 -350.5 -145.5t-145.5 -350.5t145.5 -350.5t350.5 -145.5t350.5 145.5
t145.5 350.5t-145.5 350.5t-350.5 145.5zM512 -80q-192 0 -328 136t-136 328t136 328t328 136t328 -136t136 -328t-136 -328t-328 -136z" />
    <glyph glyph-name="youxiang" unicode="&#xe622;" 
d="M739 578h-454v0q-14 0 -23.5 -9.5t-9.5 -22.5v0v-324q0 -13 9.5 -22.5t23.5 -9.5v0h454v0q14 0 23.5 9.5t9.5 22.5v0v324v0q0 13 -9.5 22.5t-23.5 9.5v0v0zM701 281q5 -5 5 -11.5t-5 -11.5t-12 -5t-12 5l-101 102l-32 -31q-14 -14 -34 -14q-17 0 -30 11l-2 2l-4 4l-27 28
l-102 -102q-5 -5 -12 -5t-12 5t-5 12t5 12l103 102l-102 103q-5 5 -5 12t5 11.5t11.5 4.5t11.5 -4l29 -33l106 -106q14 -12 32 -12q19 0 33 14l78 81l57 55q5 5 11.5 5t11.5 -5t5 -11.5t-5 -11.5l-104 -103zM512 880q-205 0 -350.5 -145.5t-145.5 -350.5t145.5 -350.5
t350.5 -145.5t350.5 145.5t145.5 350.5t-145.5 350.5t-350.5 145.5zM512 -65q-91 0 -174.5 35.5t-143.5 95.5t-95.5 143.5t-35.5 174.5t35.5 174.5t95.5 143.5t143.5 95.5t174.5 35.5t174.5 -35.5t143.5 -95.5t95.5 -143.5t35.5 -174.5t-35.5 -174.5t-95.5 -143.5
t-143.5 -95.5t-174.5 -35.5z" />
    <glyph glyph-name="dianhua" unicode="&#xe623;" 
d="M639 261q-10 3 -22 3q-46 0 -70 -40q-7 -13 -22 -14h-11q-66 0 -115 43t-59 106v5q0 16 13 24q38 24 38 69q0 34 -23.5 58t-57.5 24q-33 0 -56.5 -22.5t-24.5 -55.5v-4q-1 -3 -1 -6t1 -6q10 -145 116 -244.5t252 -99.5h2h18q34 0 58 23.5t24 57.5q0 28 -17 49.5t-43 29.5
v0zM474 459q46 0 79.5 -33.5t33.5 -79.5q5 -17 22 -17t23 16v1q0 65 -46.5 111.5t-111.5 46.5q-17 -5 -17 -22.5t16 -22.5h1zM487 585q-3 2 -7 2q-10 0 -16.5 -7t-6.5 -17t6.5 -17t16.5 -7q4 0 7 1q75 0 128 -53t53 -128v0q5 -16 22.5 -16t22.5 16q0 94 -66 160t-160 66v0z
M501 667q-3 1 -7 1q-10 0 -17 -6.5t-7 -16.5t7 -17t17 -7q4 0 7 1q103 0 175.5 -73t72.5 -176v0q5 -17 23 -17t23 16v1q0 122 -86 208t-208 86v0zM512 880q-205 0 -350.5 -145.5t-145.5 -350.5t145.5 -350.5t350.5 -145.5t350.5 145.5t145.5 350.5t-145.5 350.5
t-350.5 145.5zM512 -65q-91 0 -174.5 35.5t-143.5 95.5t-95.5 143.5t-35.5 174.5t35.5 174.5t95.5 143.5t143.5 95.5t174.5 35.5t174.5 -35.5t143.5 -95.5t95.5 -143.5t35.5 -174.5t-35.5 -174.5t-95.5 -143.5t-143.5 -95.5t-174.5 -35.5z" />
    <glyph glyph-name="dizhi" unicode="&#xe624;" 
d="M512 656h-6q-92 0 -158.5 -64.5t-68.5 -157.5q0 -34 24 -80t58 -87t68.5 -77t58 -57t24.5 -21q9 8 25 22t56 55t71 79t56 85t25 81q-2 93 -68.5 157.5t-158.5 64.5h-6v0zM512 345q-32 0 -55 23t-23 55t23 55t55 23t55 -23t23 -55v0q0 -32 -23 -55t-55 -23v0v0zM512 880
q-205 0 -350.5 -145.5t-145.5 -350.5t145.5 -350.5t350.5 -145.5t350.5 145.5t145.5 350.5t-145.5 350.5t-350.5 145.5zM512 -65q-91 0 -174.5 35.5t-143.5 95.5t-95.5 143.5t-35.5 174.5t35.5 174.5t95.5 143.5t143.5 95.5t174.5 35.5t174.5 -35.5t143.5 -95.5t95.5 -143.5
t35.5 -174.5t-35.5 -174.5t-95.5 -143.5t-143.5 -95.5t-174.5 -35.5z" />
    <glyph glyph-name="chuanzhen" unicode="&#xe625;" 
d="M397 569h230v-28h-230v28zM397 512h230v-28h-230v28zM705 626h-382v-18l-2 -124h-51v-257h53v-85h380v85h51v257h-51zM372 597h280v-171h-280v171zM652 171h-281v57h281v-57zM512 880q-205 0 -350.5 -145.5t-145.5 -350.5t145.5 -350.5t350.5 -145.5t350.5 145.5
t145.5 350.5t-145.5 350.5t-350.5 145.5zM512 -65q-91 0 -174.5 35.5t-143.5 95.5t-95.5 143.5t-35.5 174.5t35.5 174.5t95.5 143.5t143.5 95.5t174.5 35.5t174.5 -35.5t143.5 -95.5t95.5 -143.5t35.5 -174.5t-35.5 -174.5t-95.5 -143.5t-143.5 -95.5t-174.5 -35.5z" />
    <glyph glyph-name="zuoji" unicode="&#xe626;" 
d="M343 169h17v430h-17q-12 0 -20.5 -8.5t-8.5 -20.5v-372v0q0 -12 8.5 -20.5t20.5 -8.5v0zM746 599h-244v-430h244q12 0 20.5 8.5t8.5 20.5v372v0q0 12 -8.5 20.5t-20.5 8.5v0zM586 216q0 -6 -7 -6h-40q-6 0 -6 6v40q0 7 6 7h40q7 0 7 -7v-40zM586 289q0 -6 -7 -6h-40
q-6 0 -6 6v40v0q0 7 6 7v0h40v0q7 0 7 -7v0v-40zM586 362q0 -7 -7 -7h-40q-6 0 -6 7v40q0 6 6 6h40q7 0 7 -6v-40zM665 217v0q0 -7 -6 -7v0h-40v0q-7 0 -7 7v0v39q0 7 7 7h40q6 0 6 -7v-39zM665 289q0 -6 -6 -6h-40q-7 0 -7 6v40q0 7 7 7h40q6 0 6 -7v-40zM665 362
q0 -6 -6 -6h-40q-7 0 -7 6v40q0 7 7 7h40q6 0 6 -7v-40zM744 217q0 -7 -6 -7h-40q-6 0 -6 7v39q0 7 6 7h40q6 0 6 -7v-39zM744 290q0 -7 -6 -7h-40q-6 0 -6 7v40q0 6 6 6h40q6 0 6 -6v-40zM744 362q0 -6 -6 -6h-40q-6 0 -6 6v40q0 7 6 7h40q6 0 6 -7v-40zM744 517
q0 -7 -6 -7h-199q-6 0 -6 7v50q0 6 6 6h199q6 0 6 -6v-50zM446 678h-28q-16 0 -27.5 -11.5t-11.5 -26.5v-435q0 -16 11 -27.5t27 -11.5q-7 -23 -26 -38t-44 -15q-30 0 -51.5 21.5t-21.5 51.5v1v173q-4 6 -11.5 6t-11.5 -6v-173q0 -40 28.5 -68t68.5 -28q34 0 60.5 21
t33.5 53l6 1q15 0 26.5 11t11.5 27v436q0 16 -11.5 27t-27.5 11h-1v0zM512 880q-205 0 -350.5 -145.5t-145.5 -350.5t145.5 -350.5t350.5 -145.5t350.5 145.5t145.5 350.5t-145.5 350.5t-350.5 145.5zM512 -65q-91 0 -174.5 35.5t-143.5 95.5t-95.5 143.5t-35.5 174.5
t35.5 174.5t95.5 143.5t143.5 95.5t174.5 35.5t174.5 -35.5t143.5 -95.5t95.5 -143.5t35.5 -174.5t-35.5 -174.5t-95.5 -143.5t-143.5 -95.5t-174.5 -35.5z" />
    <glyph glyph-name="bofang" unicode="&#xe698;" 
d="M512 896v0q-104 0 -199 -40.5t-163.5 -109t-109 -163.5t-40.5 -199t40.5 -199t109 -163.5t163.5 -109t199 -40.5t199 40.5t163.5 109t109 163.5t40.5 199v0q0 104 -40.5 199t-109 163.5t-163.5 109t-199 40.5zM744 367l-336 -216q-6 -4 -13 -4q-10 0 -17 7t-7 17v0v432v0
q0 10 7 17t17 7q7 0 13 -4l336 -216q11 -7 11 -20t-11 -20z" />
    <glyph glyph-name="qianjin-copy" unicode="&#xeb5c;" 
d="M720 -62q-12 0 -21 8l-416 417q-9 9 -9 21t9 21l416 417q9 8 21.5 8t21 -8.5t8.5 -21t-9 -20.5l-395 -396l395 -396q9 -8 9 -20.5t-8.5 -21t-21.5 -8.5v0z" />
    <glyph glyph-name="-x" unicode="&#xe608;" 
d="M365 -92q-64 20 -108 47.5t-95 78.5q-77 77 -111.5 160t-34.5 190.5t34.5 190.5t111.5 159q77 78 158.5 112t191 34t191 -34t159.5 -112t111.5 -159t33.5 -191q0 -105 -32 -186t-105 -158q-87 -92 -211 -132q-64 -20 -148 -20t-146 20zM627 -69q125 33 215 122.5
t121 210.5q13 47 13 121t-13 121q-28 108 -107.5 193.5t-191.5 127.5q-29 11 -56.5 14t-96 3t-96 -3t-56.5 -14q-103 -38 -178 -114t-111 -176q-16 -44 -20.5 -120.5t5.5 -128.5q25 -125 117.5 -223t220.5 -134q36 -10 116 -10t118 10zM359 138q-5 65 -9 156q-4 90 -8 163
l-5 69h73l-5 37q-6 51 -13.5 63.5t-44.5 34.5q-38 21 -43 27t3 19q4 7 11.5 6t29.5 -13q31 -17 59 -42q16 -15 21 -28.5t9 -49.5l5 -54h62q45 0 54 3t17 21q10 24 37 47q34 31 84 23t75 -49q26 -42 10.5 -89t-62.5 -69q-24 -11 -28.5 -20t-8.5 -47q-5 -57 -5 -100
q0 -42 -5 -108l-5 -60h-303zM416 439q-2 32 -5 40t-15 8q-13 0 -15.5 -7.5t-2.5 -40.5q0 -34 3 -40.5t17.5 -6.5t16.5 6.5t1 40.5zM645 415q0 21 5 47l6 25h-217l5 -18q5 -19 5 -48v-29h196v23zM715 446q10 6 -8 23l-18 17v-24q0 -17 5.5 -20.5t20.5 4.5zM750 487
q2 10 -2 12.5t-22 2.5h-27l18 -15q18 -15 23.5 -15t9.5 15zM645 528q0 3 -15 17q-11 10 -14.5 9.5t-9.5 -11.5q-6 -12 -3.5 -14.5t19.5 -2.5q23 0 23 2zM748 542q-9 15 -11 15q-3 0 -17 -15q-10 -12 -8.5 -14t19.5 -2q17 0 20 2.5t-3 13.5zM669 565q0 19 -5 22.5t-19 -6.5
q-7 -4 -6.5 -8.5t9.5 -14.5q15 -16 18 -15t3 22zM709 558q14 14 13 17.5t-18 8.5q-10 3 -12.5 -0.5t-2.5 -18.5q0 -23 2 -23t18 16z" />
    <glyph glyph-name="-x1" unicode="&#xe609;" 
d="M365 -92q-64 20 -108 47.5t-95 78.5q-77 77 -111.5 160t-34.5 190.5t34.5 190.5t111.5 159q77 78 158.5 112t191 34t191 -34t159.5 -112t111.5 -159t33.5 -191q0 -105 -32 -186t-105 -158q-87 -92 -211 -132q-64 -20 -148 -20t-146 20zM627 -69q125 33 215 122.5
t121 210.5q13 47 13 121t-13 121q-28 108 -107.5 193.5t-191.5 127.5q-29 11 -56.5 14t-96 3t-96 -3t-56.5 -14q-102 -38 -178 -114t-110 -174q-16 -46 -21 -123t5 -128q25 -125 117.5 -223t220.5 -134q36 -10 116 -10t118 10zM261.5 126.5q-9.5 9.5 -9.5 21.5q0 5 6.5 7
t34 3.5t70.5 2t129 0.5q240 0 240 -7q0 -5 -8 -22q-6 -11 -39 -13t-191 -2q-223 0 -232.5 9.5zM376 193q-29 30 -50 77.5t-24 90.5q-2 19 -2.5 28.5t2.5 19t7.5 13t17 6.5t26.5 3.5t40 0.5q57 0 68.5 2.5t20.5 19.5q15 25 12 42t-26 43q-27 30 -27 51q0 18 15 38.5t32 25.5
q12 3 15 -2t-7 -12q-12 -7 -7 -32t23 -47q45 -57 0 -105l-22 -24h93q64 0 80.5 -2.5t22.5 -13.5q10 -16 23 -16q14 0 35.5 -18t27.5 -35q12 -32 -17.5 -68.5t-72.5 -41.5q-35 -4 -48 -23q-11 -17 -18 -24.5t-14.5 -14t-22.5 -8t-31 -2.5t-51 -1h-92zM408 240q-17 41 -21 95
q-2 37 -5 47t-13 10q-15 0 -15.5 -29t12 -68t32.5 -64q20 -28 23 -28q1 0 -0.5 5t-5 14t-7.5 18zM714 292q15 13 17.5 30.5t-9 28.5t-20.5 9t-9 -15t-11 -43q-5 -10 -6.5 -15t-1.5 -8t2 -4t6 -1q13 0 32 18zM408 449q12 12 8 31.5t-22 39.5q-24 29 -24 41q0 8 11.5 23
t24.5 26t17 7q6 -4 -4 -14q-22 -22 10 -64q20 -26 20 -45t-12.5 -37t-25.5 -18t-3 10zM561 469q14 16 12 31.5t-22 38.5q-24 27 -24 41q0 8 11.5 24.5t24.5 28.5t17 8q6 -5 -4 -14q-22 -23 10 -66q20 -26 20 -45q0 -17 -16 -39t-29 -22q-8 0 -8 2.5t8 11.5z" />
    <glyph glyph-name="-x2" unicode="&#xe60a;" 
d="M365 -92q-64 20 -108 47.5t-95 78.5q-77 77 -111.5 160t-34.5 190.5t34.5 190.5t111.5 159q77 78 158.5 112t191 34t191 -34t159.5 -112t111.5 -159t33.5 -191q0 -105 -32 -186t-105 -158q-87 -92 -211 -132q-64 -20 -148 -20t-146 20zM627 -69q125 33 215 122.5
t121 210.5q13 47 13 121t-13 121q-28 108 -107.5 193.5t-191.5 127.5q-29 11 -56.5 14t-96 3t-96 -3t-56.5 -14q-103 -38 -178 -114t-111 -176q-16 -44 -20.5 -120.5t5.5 -128.5q25 -125 117.5 -223t220.5 -134q36 -10 116 -10t118 10zM285 87q-9 9 -9 198v189l33 32
q34 31 40 45q3 8 12.5 11t34.5 3q28 0 36.5 -3t14.5 -16q9 -19 29 -33q14 -8 20.5 -16.5t12 -21t7.5 -40.5t2.5 -61.5t0.5 -97.5q0 -180 -9 -189q-10 -10 -112.5 -10t-112.5 10zM472 294v98h-149v-196h149v98zM592 91q2 14 28 16l25 3v137l-28 15q-35 19 -44.5 54t-1.5 113
l6 42h168l6 -30q4 -31 4 -75q0 -41 -12 -65.5t-40 -39.5l-26 -14v-137l25 -3q26 -2 28 -16q1 -5 -0.5 -7.5t-9 -4t-20.5 -1.5h-39h-38.5t-20.5 1.5t-9.5 4t-0.5 7.5zM721 370q-5 21 -5 44v25h-55q-39 0 -47 -2.5t-8 -15.5q0 -17 -5 -44l-4 -24h64q48 0 55.5 2t4.5 15z
M346 644v63h95v-126h-95v63z" />
    <glyph glyph-name="-x3" unicode="&#xe60b;" 
d="M366 -93q-64 21 -108 47.5t-93 75.5q-77 76 -113 160t-36 189q0 111 34 194.5t112 160.5q78 78 159 112t191 34t191 -34t159 -112t112 -159t34 -191t-34 -191t-112 -159q-78 -79 -159.5 -112.5t-193.5 -33.5q-88 1 -143 19zM628 -69q124 33 214.5 122t121.5 211
q19 74 10 167.5t-42 160.5q-46 93 -132 160t-184 88q-40 8 -104 8t-104 -8q-126 -27 -225.5 -126.5t-126.5 -225.5q-8 -40 -8 -104t8 -104q10 -44 37 -100.5t57 -93.5q41 -50 108 -93t136 -62q36 -11 116 -11t118 11zM233 132q-9 10 -10 16.5t4 18.5l9 20h251q250 0 260 -9
q10 -11 8.5 -29t-14.5 -25q-16 -8 -255 -8q-171 0 -207 2.5t-46 13.5zM236 227q-15 15 -14.5 27t17.5 25q18 15 33 54q13 35 47.5 73.5t66.5 52.5t32 29q0 19 24.5 40t45.5 21q22 0 46.5 -21.5t24.5 -40.5q0 -16 10.5 -16t49.5 -27q32 -22 60.5 -60.5t34.5 -68.5
q5 -26 19 -29q6 -3 12 -10.5t8 -15.5q5 -21 -13 -35q-11 -10 -50 -12t-202 -2q-169 0 -204.5 2t-47.5 14zM440 376q25 10 25 17t-5.5 9.5t-16 0t-23.5 -9.5q-30 -16 -48.5 -36t-13.5 -33q1 -4 3 -5.5t5.5 0t9 6t13.5 13.5q26 26 51 38zM510 499q-12 13 -29 7q-24 -7 -13 -15
q7 -5 26 -5q22 0 23 3q1 2 -7 10zM592 497q-13 15 -14.5 39.5t8.5 40.5q8 13 9 22t-4 26q-12 36 0 33q4 0 11 -6q13 -12 16.5 -38t-6.5 -46q-11 -24 -5 -42q12 -43 -1 -41q-6 1 -14 12zM637 519q-6 20 -5.5 30.5t10.5 27.5q10 19 10 26t-10 22q-13 20 -4 30q9 9 20 -7
q29 -39 8 -77q-8 -13 -9 -22.5t4 -24.5q8 -24 7.5 -31t-10.5 -7q-11 0 -21 33z" />
    <glyph glyph-name="u4" unicode="&#xe60c;" 
d="M388 -99q-133 35 -229.5 132.5t-130.5 231.5q-12 48 -12 119t12 119q35 135 132 232.5t231 131.5q50 13 121 13t121 -13q134 -34 231 -131t131 -231q13 -50 13 -121t-13 -122q-34 -133 -131 -230t-231 -132q-49 -12 -122.5 -12t-122.5 13zM633 -69q105 27 189.5 102
t125.5 178q55 140 16.5 289.5t-155.5 246.5q-32 26 -89 54t-100 39q-42 10 -108 10t-108 -10q-70 -17 -138 -59.5t-115 -98.5q-28 -32 -56.5 -89.5t-38.5 -100.5t-10 -108.5t10 -108.5q10 -42 38 -99.5t55 -89.5q55 -66 132.5 -109.5t165.5 -56.5q37 -6 90 -2.5t96 13.5v0z
M471 73q-46 21 -46 66q0 39 25 55t85 16h54l-1 229q-2 230 1 230q1 0 62 -19q65 -21 96.5 -52.5t38.5 -81.5l4 -24l-82 10q-84 12 -85 12q-3 0 -3 -191q0 -130 -1.5 -163.5t-9.5 -50.5q-17 -33 -57.5 -43.5t-80.5 7.5zM239 306v16h261v-31h-261v15zM239 412v15h261v-31h-261
v16zM239 517v15h261v-31h-261v16z" />
    <glyph glyph-name="open" unicode="&#xe65b;" 
d="M512 -112q-101 0 -193 39.5t-158 105.5t-105.5 158t-39.5 193q0 151 82.5 274.5t217.5 181.5q93 40 196 40q101 0 192.5 -39.5t158 -106t106 -158t39.5 -192.5q0 -151 -83 -274.5t-217 -181.5q-93 -40 -195 -40h-1v0zM511.5 839q-92.5 0 -176.5 -36t-145 -97t-97 -145.5
t-36 -177t36 -176.5t97 -145t145 -97t176.5 -36t177 36t145.5 97t97 145t36 176.5t-36 177t-97 145.5t-145.5 97t-177 36zM494 334q-5 1 -10 1h-2h-25v-34h25q13 0 18 4.5t5 12.5v1q0 5 -3 10t-9 6zM399 332q-7 5 -17 5v0h-1q-13 0 -22 -9q-10 -9 -10 -31q0 -18 9 -28
q10 -10 24 -10t24 10q9 10 9 29v1q0 11 -4 20q-5 11 -16 15zM711 431l-162 113q2 6 2 11q0 17 -12 29t-29 12t-28.5 -12t-11.5 -29q0 -6 2 -13l-156 -110q-30 -9 -49 -34t-19 -57v-75q0 -39 27.5 -66.5t66.5 -27.5h340q39 0 66.5 27.5t27.5 66.5v75q0 31 -18 55.5t-46 34.5
h-1zM477 532q13 -17 33 -17q22 0 34 18l140 -97h-343l136 96v0zM422 272q-7 -15 -22 -20q-4 -4 -18 -4v0h-1q-13 0 -24 7q-13 8 -18 24q-3 3 -3 18v0q0 24 12.5 37.5t33.5 13.5v0q13 0 24 -6q14 -8 19 -24q3 -4 3 -19v-0.5v-1.5q0 -14 -6 -26v1zM510 298q-7 -9 -28 -9h-25
v-39h-13v97h37h2q7 0 13 -1q8 -2 14 -6q4 -4 7 -12q1 -1 1 -10q0 -11 -8 -20v0zM607 250h-72v97h70v-12h-57v-30h53v-11h-53v-33h59v-11v0zM701 250h-13l-51 76v-76h-12v97h13l50 -76v76h13v-97v0z" />
    <glyph glyph-name="xihuan1" unicode="&#xe600;" 
d="M705 781q-33 0 -65 -14t-57 -36t-41 -41.5t-30 -41.5q-14 22 -30.5 41.5t-41 41.5t-56.5 36t-66 14q-102 0 -175 -81.5t-73 -195.5q0 -53 31.5 -120t74.5 -107q58 -74 186 -183t151 -109t149 107.5t184 183.5q45 40 76.5 107t31.5 121q0 114 -73 195.5t-176 81.5z
M896 504q0 -43 -27 -98t-63 -88q-1 0 -4 -4q-48 -63 -133.5 -137.5t-155.5 -126.5q-204 151 -291 265l-4 4q-36 32 -63 87t-27 98q0 90 56 154t134 64q48 0 93.5 -43t74.5 -103q7 -16 26 -16t26 16q29 60 74.5 103t93.5 43q78 0 134 -64t56 -154z" />
    <glyph glyph-name="xihuan2" unicode="&#xe606;" 
d="M723 792q-67 0 -124 -38t-87 -103q-30 65 -87 103t-124 38q-97 0 -166.5 -75.5t-69.5 -180.5q0 -54 18 -97t54 -100q27 -43 74.5 -96t90.5 -93.5t92.5 -83.5t69 -58.5t32.5 -25.5q7 -6 16 -6t16 6q13 10 32.5 25.5t69 58.5t92.5 83.5t90.5 93.5t74.5 96q36 57 54 100
t18 97q0 105 -69.5 180.5t-166.5 75.5z" />
    <glyph glyph-name="alley-logo" unicode="&#xe65c;" 
d="M181.5 714.5q56.5 56.5 153.5 97t178 40.5q95 0 181.5 -37t149 -100t100 -149.5t37.5 -181.5t-37.5 -181.5t-100 -149.5t-149 -100t-182 -37t-182 37t-149 100t-99.5 149.5t-37 181.5v0q0 80 40 177t96.5 153.5zM593 726h-13v3h4v27h-4v3h13v-3h-5v-27h5v-3zM621 726h-4
v14v1q0 3 -1 6q-1 2 -4 2v0q-4 -1 -7 -4v-19h-4v25h4v-3q3 4 8 4v0q4 0 6 -2q2 -3 2 -7v0v-17zM650 726q-8 0 -8 8v14h-3v3h3v7h4v-7h9v-3h-9v-11v-2v-4q1 -1 2 -1q1 -1 3 -1t4 1v-4h-4h-1v0zM681 726h-4v14v1q0 3 -1 6q-2 1 -5 2q-4 -1 -7 -4v-19h-4v35h4v-13q4 4 9 4v0
q4 0 6 -2q2 -3 2 -6v-1v-17zM691 741h15q0 7 -7 7v0q-3 0 -5.5 -2t-2.5 -5zM700 726v0q-5 0 -9 3q-4 4 -4 10v0v0q0 6 4 9q3 4 8 4v0h1q4 0 7 -3t3 -8v0v-3h-19v-1q0 -8 8 -8h1q5 0 9 3v0v-4q-4 -2 -9 -2zM599 642l-6 16l-7 -16h13zM603 629l-4 9h-14l-3 -9h-4l12 33h5
l12 -33h-4zM617 629h-4v35h4v-35zM630 629h-4v35h4v-35zM640 644h15q0 7 -7 7v0q-3 0 -6 -1l-2 -6v0zM649 629h-1q-5 0 -8.5 3.5t-3.5 8.5v0.5v0.5q0 5 3 9q4 4 9 4h1q4 0 7 -3t3 -8h-1v-2h-18v-1q0 -4 2.5 -6.5t5.5 -2.5h1q5 0 9 3v-5q-4 -1 -9 -1zM686 654l-14 -34h-5
l5 10l-10 24h5l7 -19l8 19h4zM713.5 629h-0.5q-5 0 -8 3q-3 4 -3 9v0.5v1.5q0 5 3 8q4 4 9 4t8 -4q3 -3 3 -8v-1.5v-0.5q0 -5 -3 -9q-3 -3 -8 -3h-0.5zM714 651h-1q-3 0 -5 -2q-2 -3 -2 -6v-1.5v-0.5q0 -4 2 -6q2 -3 6 -3v0v0q4 0 5 3q2 2 2 6v1q0 9 -7 9v0zM745 660
q-1 1 -3 1v0h-1q-2 0 -4 -2q-1 -1 -1 -4v-1h7v-3h-7v-22h-4v22h-3v3h3v1v0q0 4 3 6q2 3 5 3h1v0q2 0 4 -1v-3zM607 534q-5 -2 -11 -3h-1q-6 0 -11 5t-5 11v1.5v0.5q0 7 5 12t11 5h1q6 -1 11 -3v-5q-5 4 -12 4v0q-5 0 -8 -4q-4 -4 -4 -9v-1v0q0 -5 4 -10q3 -4 8 -4h1v0
q4 0 7 2v9h-8v3h12v-14zM625 531h-1q-5 0 -8 4t-3 9v0.5v0.5q0 5 3 9q4 3 9 3t8 -3q3 -4 3 -9v-0.5v-0.5q0 -5 -3 -9t-8 -4v0v0zM625 554h-1q-3 0 -5 -2q-2 -3 -2 -7v0v-1q0 -4 2 -7q1 -2 6 -2v0q3 0 5 2q2 3 2 7v1q0 9 -7 9v0zM653 531h-1q-5 0 -8 4t-3 9v0.5v0.5q0 5 3 9
q4 3 9 3t8 -3q3 -4 3 -9v-0.5v-0.5q0 -5 -3 -9t-8 -4v0v0zM653 554h-1q-3 0 -5 -2q-2 -3 -2 -7v0v-1q0 -4 2 -7q2 -2 6 -2v0q3 0 5 2q2 3 2 7v1q0 9 -7 9v0zM687 538v14q-3 2 -6 2v0q-4 0 -6 -3t-2 -7v0q0 -9 7 -9v0q4 0 7 2v1zM687 532v3q-3 -4 -8 -4v0q-4 0 -7 4
q-2 4 -2 8v1v1q0 5 3 9q3 3 7 4h1q3 0 6 -2v11h4v-35h-4zM590 434v30h-12v4h28v-4h-12v-30h-4zM626 441v7h-3q-4 0 -8 -2q-2 -1 -2 -4v0q0 -5 5 -5t8 4v0zM626 434v3q-3 -2 -5 -3h-4h-1q-3 0 -5 2t-2 5v1v0q0 4 3 6q6 3 11 3q2 0 3 -1v1v1q0 2 -2 3t-5 1v0q-4 0 -7 -1h-1v4
q3 1 7 1h1h1q4 0 7 -2q3 -3 3 -6v0v-18h-4zM645 434q-4 0 -9 2v5q4 -4 9 -4q7 0 7 4l-1 2q-2 2 -4 2q-3 0 -5 1q-3 0 -4 2q-2 1 -2 4v0v0q0 4 3 6t6 2h1h1q4 0 7 -2v-4v0q-3 3 -8 3v0q-2 0 -4 -1t-2 -3q0 -1 1 -3q1 -1 3 -1h1l4 -1q3 -1 5 -2q1 -2 2 -5v0q0 -3 -3 -5
q-4 -2 -8 -2v0v0zM670 434q-8 0 -8 9v13h-3v3h3v8h4v-8h9v-3h-9v-12v-1v-3q1 -2 2 -2l1 -0.5t2 -0.5q2 0 3 1h1v-4h-5v0zM682 449h14q0 8 -6 8h-1q-2 0 -4 -2q-3 -2 -3 -6v0v0zM691 434v0q-6 0 -9 3q-4 4 -4 9v1v1q0 5 3 9q3 3 8 3h1v0q5 0 8 -3q2 -3 2 -7v-1v-2h-18v-1
q0 -4 2.5 -6.5t6.5 -2.5v0q5 1 9 3v-4q-4 -2 -9 -2v0zM382 287h-31v-2h-4v19h18v8h-23v3h23v7q-14 -1 -18 -1v3q9 1 19 2q8 0 17 2l2 -3q-8 -2 -16 -2v-8h22v-3h-22v-8h18v-19h-4zM351 290h31v11h-31v-11zM364 251h-7v4h6h2v1v16h4v-17v0q0 -2 -1 -3q-2 -1 -4 -1v0zM388 253
q-7 7 -11 15l3 1q5 -7 11 -13zM346 253l-3 2q4 3 6 7q3 3 4 7l4 -1q-2 -5 -5 -8q-2 -4 -6 -7zM365 245v4h4v-4h23v-4h-22q9 -9 21 -11l-1 -3q-8 2 -14 5t-9 9q-3 -6 -9 -9q-7 -4 -15 -5l-1 3q7 1 13 4q5 3 8 8h-21v3h23zM342 172v3h21v40h5v-14h19v-3h-19v-23h23v-3h-49z
M348 147v-11h11v11h-11zM348 133v-12h11v12h-11zM363 140v-22h-15v-4h-4v36h7l3 8h4l-3 -8h8v-7q5 7 6 15h4q-1 -5 -1 -6h17v-19v-3q0 -5 -1 -10q0 -3 -2 -4q-2 -2 -5 -2h-1h-6l-1 3h7q2 0 4 2q1 3 1 7v1v22h-14l-6 -10zM369 136h12v-3h-12v3zM342 86v2h23v3h-17v8h17v3h4
v-3h17v-8h-17v-3h23v-2h-50zM382 97h-13v-4h13v4zM365 97h-13v-4h13v4zM348 63v20h39v-20h-39zM352 77h31v3h-31v-3zM352 72h31v3h-31v-3zM383 69h-31v-3h31v3zM389 56q-8 1 -16 4l2 3q8 -3 16 -4zM344 55l-2 3q6 2 9 2l6 2l3 -2q-3 -1 -7 -3q-8 -1 -9 -1v-1zM383 0v44h4
v-44h-4zM345 -1l-2 3q4 4 6 10q2 7 2 14v17h4v-16q1 -18 -10 -27v-1zM367 0v43h4v-42zM378 19l-4 12l3 1q1 -2 2 -5.5t2 -6.5zM346 18l-4 1q2 6 2 13l4 -1q0 -3 -1 -7q0 -3 -1 -6v0zM361 19q0 1 -1 5t-2 7l3 1q1 -1 4 -13h-4zM408 434v149h43v-149h-43zM461 423v170h-63
v-170h63zM452 657v54h40v-54h-40zM452 721v54h40v-54h-40zM441 785v-138h51v-280h-19v-11h19v-84h-19v-11h17l-16 -105h10l17 105h88l17 -105h10l-16 105h20v11h-20v84h20v11h-20v33h-11v-128h-86v513h-62zM419 657v128h-63v-430h10v292h53v10zM408 775v-54h-42v54h42z
M408 711v-54h-42v54h42zM600 74v80h-108v-180h129v10h-119v90h98zM502 84v59h87v-59h-87zM896 398v-1v-1q8 -33 9.5 -70t-3 -82.5t-22.5 -94t-49 -91.5l4 4q55 55 94 149.5t39 172.5q0 93 -36 177.5t-97 145.5t-145.5 97t-177.5 36q-78 0 -172.5 -39t-149.5 -95
q-5 -4 -28 -29q-21 -30 -33 -64q-19 -68 -20 -145t17 -95q1 -2 3 -4q4 -3 9 -6l7 -4q141 -60 96 -182q1 29 -10 42.5t-39 25.5t-44 24q-18 17 -23.5 35.5t-3 29t4.5 10.5q4 -19 15 -35t23.5 -24.5t25 -14.5t19.5 -8t8 -2q-42 17 -58.5 36.5t-23.5 49.5q-12 12 -20 27
q-15 33 -19 76.5t-0.5 79t11.5 65.5q-21 -41 -36 -102.5t-15 -107.5q0 -93 36 -177.5t97 -145.5t145.5 -97t177.5 -36q50 0 116 17.5t110 42.5q44 33 76.5 77t49.5 87t25 89t7 84t-8 71q-5 -2 -13.5 -3.5t-24 1t-28.5 12.5q-17 11 -20 32q8 -14 22 -19q7 -2 14 -2
q39 -3 54 -15q3 -2 4 -4v0zM875 452l-16 18q-1 0 -1 0.5v1.5h-1v0q-15 12 -27 -6h-1q-9 -20 10 -23v0q10 1 14 9v1v2h-1q-1 0 -2 -1q-4 -6 -11 -8q-11 2 -6 18q9 13 22 5v0q1 0 1 -0.5t0.5 -1l0.5 -0.5q6 -9 5 -15t-5 -10l-4 -3v0v-1v0q-17 -17 -34 7q-3 10 -0.5 25.5
t10.5 20.5q9 7 21 9q9 1 16.5 -6.5t11.5 -17.5v-3v-5.5t1 -5.5v-3.5v-4.5q0 -4 -0.5 -4.5t-3.5 2.5v0zM888 409q-16 9 -50 12q-7 0 -13 1q-11 4 -17.5 13t-4.5 20q4 16 16 28q-8 -25 -2 -38v-1q0 -1 1.5 -3t5.5 -6t8.5 -6t10.5 -1t13 7q8 7 10 18q0 4 2 1l9 -9q4 -3 4 -8
q1 -15 7 -28v0zM903 463q9 -32 -4 -62l-4 4q-12 17 -13 57v2q0 6 -1 13q-5 14 -17 23q26 -4 39 -37v0z" />
  </font>
</defs>
</svg>
